<svg xmlns="http://www.w3.org/2000/svg" version="1.1" xmlns:xlink="http://www.w3.org/1999/xlink" xmlns:svgjs="http://svgjs.dev/svgjs" viewBox="0 0 190 800" width="60" height="24" opacity="1">
  <defs>
    <linearGradient x1="50%" y1="0%" x2="50%" y2="100%" id="nnneon-grad">
      <stop stop-color="hsl(263, 100%, 54%)" stop-opacity="1" offset="0%"></stop>
      <stop stop-color="hsl(189, 87%, 61%)" stop-opacity="1" offset="100%"></stop>
    </linearGradient>
    <filter id="nnneon-filter" x="-0%" y="-0%" width="100%" height="100%" filterUnits="objectBoundingBox" primitiveUnits="userSpaceOnUse" color-interpolation-filters="sRGB">
      <feGaussianBlur stdDeviation="59 0" x="0%" y="0%" width="100%" height="100%" in="SourceGraphic" edgeMode="none" result="blur"></feGaussianBlur>
    </filter>
    <filter id="nnneon-filter2" x="-100%" y="-100%" width="400%" height="400%" filterUnits="objectBoundingBox" primitiveUnits="userSpaceOnUse" color-interpolation-filters="sRGB">
      <feGaussianBlur stdDeviation="0 77" x="0%" y="0%" width="100%" height="100%" in="SourceGraphic" edgeMode="none" result="blur"></feGaussianBlur>
    </filter>
  </defs>
  <g stroke-width="32" stroke="url(#nnneon-grad)" fill="none">
    <path d="M400 226.795166015625L550.0000095849032 313.3975856398686V486.60242488835587L400 573.2048445125995L249.99999041509682 486.60242488835587V313.3975856398686L400 226.795166015625Z " filter="url(#nnneon-filter)"></path>
    <path d="M432 226.795166015625L582.0000095849032 313.3975856398686V486.60242488835587L432 573.2048445125995L281.9999904150968 486.60242488835587V313.3975856398686L432 226.795166015625Z " filter="url(#nnneon-filter2)" opacity="0.1"></path>
    <path d="M368 226.795166015625L518.0000095849032 313.3975856398686V486.60242488835587L368 573.2048445125995L217.99999041509682 486.60242488835587V313.3975856398686L368 226.795166015625Z " filter="url(#nnneon-filter2)" opacity="0.1"></path>
    <path d="M400 226.795166015625L550.0000095849032 313.3975856398686V486.60242488835587L400 573.2048445125995L249.99999041509682 486.60242488835587V313.3975856398686L400 226.795166015625Z "></path>
  </g>
</svg>
