<?xml version="1.0" standalone="no"?>
<!DOCTYPE svg PUBLIC "-//W3C//DTD SVG 20010904//EN"
 "http://www.w3.org/TR/2001/REC-SVG-20010904/DTD/svg10.dtd">
<svg version="1.0" xmlns="http://www.w3.org/2000/svg"
 width="666.000000pt" height="375.000000pt" viewBox="0 0 666.000000 375.000000"
 preserveAspectRatio="xMidYMid meet">
<metadata>
Created by potrace 1.16, written by Peter Selinger 2001-2019
</metadata>
<g transform="translate(0.000000,375.000000) scale(0.100000,-0.100000)"
fill="#000000" stroke="none">
<path d="M689 3447 c-15 -21 -89 -196 -104 -247 -4 -14 -20 -52 -35 -85 -14
-33 -33 -76 -40 -95 -14 -37 -113 -275 -135 -325 -23 -53 -205 -486 -261 -620
-30 -71 -61 -143 -69 -160 -31 -67 -43 -104 -43 -143 -1 -34 4 -45 26 -60 23
-17 53 -20 215 -25 103 -3 191 -8 196 -11 5 -3 9 -49 10 -103 1 -53 4 -99 6
-103 3 -5 8 -73 20 -270 3 -47 8 -121 10 -165 3 -44 7 -125 10 -180 3 -55 7
-131 10 -170 2 -38 7 -115 11 -169 8 -115 26 -146 86 -146 49 1 73 26 102 108
14 40 32 85 40 100 7 15 21 47 29 72 9 25 41 106 72 180 32 74 70 167 85 205
33 82 112 268 146 343 13 29 24 55 24 58 0 3 40 98 88 212 49 114 95 223 102
242 7 19 26 63 42 98 35 79 35 96 -1 133 -28 27 -34 29 -118 30 -48 1 -104 3
-123 4 -19 1 -67 2 -106 3 l-72 2 -7 83 c-4 45 -9 93 -10 107 -2 14 -6 93 -9
175 -4 83 -9 166 -11 185 -2 19 -7 76 -10 125 -38 626 -34 588 -57 612 -30 32
-96 32 -119 0z"/>
<path d="M4730 1750 l0 -481 78 3 77 3 -2 55 c-2 45 0 51 9 35 41 -75 103
-107 208 -108 119 0 196 46 241 145 22 49 24 65 24 228 0 156 -2 180 -21 220
-41 90 -127 145 -231 149 -83 3 -132 -15 -183 -68 l-46 -46 1 170 0 170 -77 3
-78 3 0 -481z m390 104 c22 -9 50 -30 63 -48 20 -29 22 -42 22 -176 0 -123 -3
-150 -18 -173 -30 -46 -65 -62 -132 -61 -70 1 -120 25 -146 71 -22 37 -31 135
-23 230 7 73 10 81 44 115 20 21 34 41 31 44 -3 4 -1 4 5 1 6 -3 24 -2 40 3
44 13 70 12 114 -6z"/>
<path d="M2817 2200 c-95 -24 -167 -87 -188 -162 -6 -24 -9 -73 -7 -109 10
-140 79 -199 303 -259 139 -38 175 -69 175 -150 0 -91 -42 -122 -169 -123 -97
-1 -171 14 -249 50 -29 14 -56 23 -58 20 -3 -3 -2 -37 2 -77 l7 -71 41 -19
c71 -33 157 -50 256 -50 111 0 180 17 245 61 67 46 90 95 90 199 0 102 -6 128
-42 170 -42 50 -90 75 -234 120 -74 24 -146 51 -161 62 -49 34 -56 121 -15
166 50 53 201 54 339 1 44 -17 81 -29 82 -27 9 9 -15 143 -26 150 -64 41 -303
70 -391 48z"/>
<path d="M3590 1987 c-61 -14 -68 -18 -124 -61 -73 -59 -97 -138 -94 -308 2
-123 16 -203 41 -242 29 -44 94 -97 132 -109 22 -7 87 -12 145 -12 94 0 111 3
155 26 l50 25 3 67 c2 37 0 67 -4 67 -4 0 -28 -10 -53 -22 -25 -12 -74 -24
-111 -28 -55 -5 -72 -2 -111 17 -70 34 -89 79 -89 216 0 94 3 114 24 156 31
60 66 76 161 75 51 0 82 -6 114 -22 70 -34 74 -32 66 36 -4 31 -14 65 -22 74
-38 42 -189 66 -283 45z"/>
<path d="M5670 1984 c-77 -24 -122 -63 -160 -138 l-35 -69 0 -156 0 -156 36
-65 c41 -75 103 -123 181 -140 81 -17 208 -12 279 10 91 29 100 38 106 109 3
34 1 61 -3 61 -5 0 -40 -11 -79 -25 -95 -33 -218 -35 -283 -4 -46 23 -81 77
-82 126 l0 23 228 2 227 3 0 120 c0 110 -3 124 -27 170 -32 61 -84 103 -157
127 -65 22 -168 22 -231 2z m205 -143 c33 -18 60 -67 68 -123 l6 -38 -161 0
-161 0 7 46 c9 69 26 97 76 122 51 26 112 24 165 -7z"/>
<path d="M3959 1983 c-3 -18 3 -59 10 -68 4 -5 22 -57 40 -115 18 -58 37 -114
41 -125 5 -11 14 -38 20 -60 6 -22 15 -49 20 -60 4 -11 25 -73 46 -137 l39
-118 37 0 37 0 -19 -44 c-24 -56 -70 -202 -70 -222 0 -12 14 -14 77 -12 l78 3
127 380 c196 584 191 566 181 576 -6 6 -43 9 -83 7 l-74 -3 -8 -35 c-5 -19
-45 -147 -90 -284 l-81 -249 -33 109 c-19 60 -36 118 -39 129 -23 95 -97 319
-109 327 -14 10 -146 10 -147 1z"/>
<path d="M6225 1982 c-3 -3 -5 -164 -5 -359 l0 -353 80 0 80 0 0 220 c0 242 3
255 60 304 40 33 103 50 165 42 l51 -6 -1 70 c0 38 -6 75 -12 81 -7 7 -37 10
-82 7 -60 -3 -75 -8 -108 -34 -21 -17 -49 -46 -61 -65 l-24 -34 5 37 c3 23 0
39 -7 42 -7 3 -7 5 2 5 6 1 12 10 12 21 0 17 -7 20 -52 21 -29 0 -63 2 -76 3
-12 2 -24 0 -27 -2z"/>
</g>
</svg>
